<mxfile host="app.diagrams.net" agent="Mozilla/5.0 (Windows NT 10.0; Win64; x64) AppleWebKit/537.36 (KHTML, like Gecko) Chrome/130.0.0.0 Safari/537.36" version="24.8.2">
  <diagram name="Page-1" id="nG5Lf46U3G_AB2WQUIO0">
    <mxGraphModel dx="1434" dy="780" grid="1" gridSize="10" guides="1" tooltips="1" connect="1" arrows="1" fold="1" page="1" pageScale="1" pageWidth="827" pageHeight="1169" math="0" shadow="0">
      <root>
        <mxCell id="0" />
        <mxCell id="1" parent="0" />
        <mxCell id="rVXt2I2E3oL4A_mwTCk6-1" value="User" style="shape=umlActor;verticalLabelPosition=bottom;verticalAlign=top;html=1;outlineConnect=0;" parent="1" vertex="1">
          <mxGeometry x="80" y="520" width="80" height="120" as="geometry" />
        </mxCell>
        <mxCell id="rVXt2I2E3oL4A_mwTCk6-2" value="Admin" style="shape=umlActor;verticalLabelPosition=bottom;verticalAlign=top;html=1;outlineConnect=0;" parent="1" vertex="1">
          <mxGeometry x="680" y="520" width="80" height="120" as="geometry" />
        </mxCell>
        <mxCell id="rVXt2I2E3oL4A_mwTCk6-3" value="create bucket" style="ellipse;whiteSpace=wrap;html=1;align=center;" parent="1" vertex="1">
          <mxGeometry x="361" y="170" width="120" height="60" as="geometry" />
        </mxCell>
        <mxCell id="rVXt2I2E3oL4A_mwTCk6-4" value="delete bucket" style="ellipse;whiteSpace=wrap;html=1;align=center;" parent="1" vertex="1">
          <mxGeometry x="362" y="250" width="120" height="60" as="geometry" />
        </mxCell>
        <mxCell id="rVXt2I2E3oL4A_mwTCk6-5" value="edit bucket info" style="ellipse;whiteSpace=wrap;html=1;align=center;" parent="1" vertex="1">
          <mxGeometry x="362" y="332" width="120" height="60" as="geometry" />
        </mxCell>
        <mxCell id="rVXt2I2E3oL4A_mwTCk6-6" value="add object" style="ellipse;whiteSpace=wrap;html=1;align=center;" parent="1" vertex="1">
          <mxGeometry x="362" y="571" width="120" height="60" as="geometry" />
        </mxCell>
        <mxCell id="rVXt2I2E3oL4A_mwTCk6-7" value="remove object" style="ellipse;whiteSpace=wrap;html=1;align=center;" parent="1" vertex="1">
          <mxGeometry x="360" y="651" width="120" height="60" as="geometry" />
        </mxCell>
        <mxCell id="rVXt2I2E3oL4A_mwTCk6-14" value="get objects" style="ellipse;whiteSpace=wrap;html=1;align=center;" parent="1" vertex="1">
          <mxGeometry x="360" y="731" width="120" height="60" as="geometry" />
        </mxCell>
        <mxCell id="rVXt2I2E3oL4A_mwTCk6-15" value="get all objects" style="ellipse;whiteSpace=wrap;html=1;align=center;" parent="1" vertex="1">
          <mxGeometry x="360" y="809" width="120" height="60" as="geometry" />
        </mxCell>
        <mxCell id="rVXt2I2E3oL4A_mwTCk6-22" value="&lt;font style=&quot;font-size: 14px;&quot;&gt;Use Case Diagram - flexibase-storage module&lt;/font&gt;" style="text;html=1;align=center;verticalAlign=middle;resizable=0;points=[];autosize=1;strokeColor=none;fillColor=none;" parent="1" vertex="1">
          <mxGeometry x="259" y="970" width="310" height="30" as="geometry" />
        </mxCell>
        <mxCell id="rVXt2I2E3oL4A_mwTCk6-23" value="get buckets" style="ellipse;whiteSpace=wrap;html=1;align=center;" parent="1" vertex="1">
          <mxGeometry x="361" y="410" width="120" height="60" as="geometry" />
        </mxCell>
        <mxCell id="rVXt2I2E3oL4A_mwTCk6-24" value="get bucket info" style="ellipse;whiteSpace=wrap;html=1;align=center;" parent="1" vertex="1">
          <mxGeometry x="361" y="491" width="120" height="59" as="geometry" />
        </mxCell>
        <mxCell id="nbBjpG1MMbMtoB-fpbJl-1" value="" style="endArrow=classic;html=1;rounded=0;entryX=0;entryY=0.5;entryDx=0;entryDy=0;" edge="1" parent="1" source="rVXt2I2E3oL4A_mwTCk6-1" target="rVXt2I2E3oL4A_mwTCk6-6">
          <mxGeometry width="50" height="50" relative="1" as="geometry">
            <mxPoint x="390" y="630" as="sourcePoint" />
            <mxPoint x="440" y="580" as="targetPoint" />
          </mxGeometry>
        </mxCell>
        <mxCell id="nbBjpG1MMbMtoB-fpbJl-2" value="" style="endArrow=classic;html=1;rounded=0;entryX=0;entryY=0.5;entryDx=0;entryDy=0;" edge="1" parent="1" source="rVXt2I2E3oL4A_mwTCk6-1" target="rVXt2I2E3oL4A_mwTCk6-7">
          <mxGeometry width="50" height="50" relative="1" as="geometry">
            <mxPoint x="390" y="630" as="sourcePoint" />
            <mxPoint x="440" y="580" as="targetPoint" />
          </mxGeometry>
        </mxCell>
        <mxCell id="nbBjpG1MMbMtoB-fpbJl-3" value="" style="endArrow=classic;html=1;rounded=0;entryX=0;entryY=0.5;entryDx=0;entryDy=0;" edge="1" parent="1" source="rVXt2I2E3oL4A_mwTCk6-1" target="rVXt2I2E3oL4A_mwTCk6-14">
          <mxGeometry width="50" height="50" relative="1" as="geometry">
            <mxPoint x="390" y="630" as="sourcePoint" />
            <mxPoint x="440" y="580" as="targetPoint" />
          </mxGeometry>
        </mxCell>
        <mxCell id="nbBjpG1MMbMtoB-fpbJl-4" value="" style="endArrow=classic;html=1;rounded=0;entryX=1;entryY=0.5;entryDx=0;entryDy=0;" edge="1" parent="1" source="rVXt2I2E3oL4A_mwTCk6-2" target="rVXt2I2E3oL4A_mwTCk6-3">
          <mxGeometry width="50" height="50" relative="1" as="geometry">
            <mxPoint x="620" y="332" as="sourcePoint" />
            <mxPoint x="670" y="282" as="targetPoint" />
          </mxGeometry>
        </mxCell>
        <mxCell id="nbBjpG1MMbMtoB-fpbJl-5" value="" style="endArrow=classic;html=1;rounded=0;entryX=1;entryY=0.5;entryDx=0;entryDy=0;" edge="1" parent="1" source="rVXt2I2E3oL4A_mwTCk6-2" target="rVXt2I2E3oL4A_mwTCk6-4">
          <mxGeometry width="50" height="50" relative="1" as="geometry">
            <mxPoint x="650" y="260" as="sourcePoint" />
            <mxPoint x="700" y="210" as="targetPoint" />
          </mxGeometry>
        </mxCell>
        <mxCell id="nbBjpG1MMbMtoB-fpbJl-6" value="" style="endArrow=classic;html=1;rounded=0;entryX=1;entryY=0.5;entryDx=0;entryDy=0;" edge="1" parent="1" source="rVXt2I2E3oL4A_mwTCk6-2" target="rVXt2I2E3oL4A_mwTCk6-5">
          <mxGeometry width="50" height="50" relative="1" as="geometry">
            <mxPoint x="650" y="290" as="sourcePoint" />
            <mxPoint x="700" y="240" as="targetPoint" />
          </mxGeometry>
        </mxCell>
        <mxCell id="nbBjpG1MMbMtoB-fpbJl-7" value="" style="endArrow=classic;html=1;rounded=0;entryX=1;entryY=0.5;entryDx=0;entryDy=0;" edge="1" parent="1" source="rVXt2I2E3oL4A_mwTCk6-2" target="rVXt2I2E3oL4A_mwTCk6-23">
          <mxGeometry width="50" height="50" relative="1" as="geometry">
            <mxPoint x="390" y="530" as="sourcePoint" />
            <mxPoint x="750" y="370" as="targetPoint" />
          </mxGeometry>
        </mxCell>
        <mxCell id="nbBjpG1MMbMtoB-fpbJl-8" value="" style="endArrow=classic;html=1;rounded=0;entryX=1;entryY=0.5;entryDx=0;entryDy=0;" edge="1" parent="1" source="rVXt2I2E3oL4A_mwTCk6-2" target="rVXt2I2E3oL4A_mwTCk6-24">
          <mxGeometry width="50" height="50" relative="1" as="geometry">
            <mxPoint x="600" y="700" as="sourcePoint" />
            <mxPoint x="650" y="650" as="targetPoint" />
          </mxGeometry>
        </mxCell>
        <mxCell id="nbBjpG1MMbMtoB-fpbJl-9" value="" style="endArrow=classic;html=1;rounded=0;entryX=1;entryY=0.5;entryDx=0;entryDy=0;" edge="1" parent="1" source="rVXt2I2E3oL4A_mwTCk6-2" target="rVXt2I2E3oL4A_mwTCk6-6">
          <mxGeometry width="50" height="50" relative="1" as="geometry">
            <mxPoint x="650" y="830" as="sourcePoint" />
            <mxPoint x="700" y="780" as="targetPoint" />
          </mxGeometry>
        </mxCell>
        <mxCell id="nbBjpG1MMbMtoB-fpbJl-10" value="" style="endArrow=classic;html=1;rounded=0;entryX=1;entryY=0.5;entryDx=0;entryDy=0;" edge="1" parent="1" source="rVXt2I2E3oL4A_mwTCk6-2" target="rVXt2I2E3oL4A_mwTCk6-7">
          <mxGeometry width="50" height="50" relative="1" as="geometry">
            <mxPoint x="670" y="820" as="sourcePoint" />
            <mxPoint x="720" y="770" as="targetPoint" />
          </mxGeometry>
        </mxCell>
        <mxCell id="nbBjpG1MMbMtoB-fpbJl-11" value="" style="endArrow=classic;html=1;rounded=0;entryX=1;entryY=0.5;entryDx=0;entryDy=0;" edge="1" parent="1" source="rVXt2I2E3oL4A_mwTCk6-2" target="rVXt2I2E3oL4A_mwTCk6-14">
          <mxGeometry width="50" height="50" relative="1" as="geometry">
            <mxPoint x="720" y="820" as="sourcePoint" />
            <mxPoint x="770" y="770" as="targetPoint" />
          </mxGeometry>
        </mxCell>
        <mxCell id="nbBjpG1MMbMtoB-fpbJl-12" value="" style="endArrow=classic;html=1;rounded=0;entryX=1;entryY=0.5;entryDx=0;entryDy=0;" edge="1" parent="1" source="rVXt2I2E3oL4A_mwTCk6-2" target="rVXt2I2E3oL4A_mwTCk6-15">
          <mxGeometry width="50" height="50" relative="1" as="geometry">
            <mxPoint x="710" y="830" as="sourcePoint" />
            <mxPoint x="760" y="780" as="targetPoint" />
          </mxGeometry>
        </mxCell>
      </root>
    </mxGraphModel>
  </diagram>
</mxfile>
